# xmcd
#
# Track frame offsets: 
#        150
#        17554
#        32544
#        55679
#        77102
#        98485
#        115188
#        139713
#        162236
#        179962
#        193518
#        215379
#
# Disc length: 3281 seconds
#
# Revision: 3
# Processed by: cddbd v1.5.2PL0 Copyright (c) Steve Scherf et al.
# Submitted via: ExactAudioCopy v0.99pb5
#
DISCID=980ccf0c
DTITLE=Alvin Lee - Let It Rock
DYEAR=1978
DGENRE=Bllues-Rock
TTITLE0=Chemicals, Chemistry, Mystery and More
TTITLE1=Love The Way You Rock Me
TTITLE2=Ain't Nobody
TTITLE3=Images Shifting
TTITLE4=Little Boy
TTITLE5=Downhill Lady Racer
TTITLE6=World Is Spinning Faster
TTITLE7=Through With Your Lovin'
TTITLE8=Time To Meditate
TTITLE9=Let It Rock
TTITLE10=Snake Jam (Bonustrack)
TTITLE11=Break Jam (Bonustrack)
EXTD=Label: Repertoire Records\nREP 4707-DG\n© 1999\nDigitally remaste
EXTD=red\n2 bonus tracks
EXTT0=
EXTT1=
EXTT2=
EXTT3=
EXTT4=
EXTT5=
EXTT6=
EXTT7=
EXTT8=
EXTT9=
EXTT10=
EXTT11=
PLAYORDER=
